<?xml version="1.0" encoding="utf-8"?>
<!-- Generator: Adobe Illustrator 16.0.0, SVG Export Plug-In . SVG Version: 6.00 Build 0)  -->
<!DOCTYPE svg PUBLIC "-//W3C//DTD SVG 1.1//EN" "http://www.w3.org/Graphics/SVG/1.1/DTD/svg11.dtd">
<svg version="1.1"
	 id="svg2" xmlns:cc="http://creativecommons.org/ns#" xmlns:dc="http://purl.org/dc/elements/1.1/" xmlns:rdf="http://www.w3.org/1999/02/22-rdf-syntax-ns#" xmlns:svg="http://www.w3.org/2000/svg"
	 xmlns="http://www.w3.org/2000/svg" xmlns:xlink="http://www.w3.org/1999/xlink" x="0px" y="0px" width="297.45px"
	 height="337.342px" viewBox="0 0 297.45 337.342" enable-background="new 0 0 297.45 337.342" xml:space="preserve">
<title  id="title4">Slice 1</title>
<g id="Layer_1" transform="translate(-0.071,-82.67)">
	<path id="path13" fill="#D4B830" d="M27.142,386.29L0.071,82.67h297.45l-27.096,303.571l-121.811,33.771L27.142,386.29z"/>
	<g id="Group" transform="translate(55,142)">
		<path id="path18" fill="#FFFFFF" d="M195.551,75.496h-52.479V37.364h55.797l3.304-37.239h-98.033v112.607h50.769l-4.484,48.294
			l-46.284,8.426v38.819l81.091-18.451L195.551,75.496z"/>
		<path id="path24" fill="#FFFFFF" d="M83.796,0.125H0.645l3.453,37.254l42.319,0.001v126.706l-20.741-3.035l-2.652-29.697
			c0,0-24.919,0-37.379,0l5.216,58.467c92.935,18.45,0.352-0.014,92.935,18.45V0.125z"/>
	</g>
</g>
</svg>
